<svg width="128" height="128" viewBox="0 0 128 128" xmlns="http://www.w3.org/2000/svg">
  <defs>
    <linearGradient id="grad1" x1="0%" y1="0%" x2="100%" y2="100%">
      <stop offset="0%" style="stop-color:#4ec9b0;stop-opacity:1" />
      <stop offset="100%" style="stop-color:#007acc;stop-opacity:1" />
    </linearGradient>
  </defs>
  
  <!-- Background circle -->
  <circle cx="64" cy="64" r="60" fill="url(#grad1)" stroke="#2d2d30" stroke-width="2"/>
  
  <!-- Brain icon representing AI -->
  <path d="M40 45 C40 40, 45 35, 50 35 C55 35, 60 40, 64 40 C68 40, 73 35, 78 35 C83 35, 88 40, 88 45 C90 45, 92 47, 92 50 C92 55, 90 58, 88 60 C90 62, 92 65, 92 70 C92 73, 90 75, 88 75 C88 80, 83 85, 78 85 C73 85, 68 80, 64 80 C60 80, 55 85, 50 85 C45 85, 40 80, 40 75 C38 75, 36 73, 36 70 C36 65, 38 62, 40 60 C38 58, 36 55, 36 50 C36 47, 38 45, 40 45 Z" fill="white" opacity="0.9"/>
  
  <!-- Neural network connections -->
  <circle cx="50" cy="55" r="3" fill="white"/>
  <circle cx="64" cy="50" r="3" fill="white"/>
  <circle cx="78" cy="55" r="3" fill="white"/>
  <circle cx="55" cy="70" r="3" fill="white"/>
  <circle cx="73" cy="70" r="3" fill="white"/>
  
  <!-- Connection lines -->
  <line x1="50" y1="55" x2="64" y2="50" stroke="white" stroke-width="2" opacity="0.7"/>
  <line x1="64" y1="50" x2="78" y2="55" stroke="white" stroke-width="2" opacity="0.7"/>
  <line x1="50" y1="55" x2="55" y2="70" stroke="white" stroke-width="2" opacity="0.7"/>
  <line x1="78" y1="55" x2="73" y2="70" stroke="white" stroke-width="2" opacity="0.7"/>
  <line x1="55" y1="70" x2="73" y2="70" stroke="white" stroke-width="2" opacity="0.7"/>
  
  <!-- Credit symbol -->
  <text x="64" y="100" text-anchor="middle" font-family="Arial, sans-serif" font-size="16" font-weight="bold" fill="white">💳</text>
</svg>